# xmcd
#
# Track frame offsets: 
#        150
#        38174
#        67816
#        83140
#        113606
#
# Disc length: 1776 seconds
#
# Revision: 0
# Processed by: cddbd v1.5.2PL0 Copyright (c) Steve Scherf et al.
# Submitted via: ExactAudioCopy v0.95b4
#
DISCID=3106ee05
DTITLE=Dexter Gordon - BlueNote15
DYEAR=2012
DGENRE=Jazz
TTITLE0=Manha De Carnaval
TTITLE1=Cheese Cake
TTITLE2=Smile
TTITLE3=Broadway
TTITLE4=As time Goes By
EXTD=
EXTT0=
EXTT1=
EXTT2=
EXTT3=
EXTT4=
PLAYORDER=
